HIERARCHY
ROOT root
{
	OFFSET	0	13.1	24.9
	CHANNELS 6  Xposition Yposition Zposition Xrotation Yrotation Zrotation
	JOINT spine_1
	{
		OFFSET	0	9.99999	0
		CHANNELS 3  Xrotation Yrotation Zrotation
		JOINT spine_2
		{
			OFFSET	0	112	-10
			CHANNELS 3  Xrotation Yrotation Zrotation
			JOINT spine_3
			{
				OFFSET	0	206.5	19.3
				CHANNELS 3  Xrotation Yrotation Zrotation
				JOINT spine_4
				{
					OFFSET	0	110.4	14.6
					CHANNELS 3  Xrotation Yrotation Zrotation
					JOINT neck_1
					{
						OFFSET	0	71.8	-50.3
						CHANNELS 3  Xrotation Yrotation Zrotation
						JOINT neck_2
						{
							OFFSET	0	86.2	-25.8
							CHANNELS 3  Xrotation Yrotation Zrotation
							JOINT head_ee
							{
								OFFSET	0	179.8	-8.7
								CHANNELS 3  Xrotation Yrotation Zrotation
								End Site
								{
									OFFSET	1	0	0
								}
							}
						}
					}
					JOINT left_clavicle
					{
						OFFSET	-43.2	22.4	-70.8
						CHANNELS 3  Xrotation Yrotation Zrotation
						JOINT left_shoulder
						{
							OFFSET	-93.9	-5.79999	48.7
							CHANNELS 3  Xrotation Yrotation Zrotation
							JOINT left_elbow
							{
								OFFSET	-291.4	-30.8	15.2
								CHANNELS 3  Xrotation Yrotation Zrotation
								JOINT left_lowarm_twist
								{
									OFFSET	-110.7	-3.89999	13.6
									CHANNELS 3  Xrotation Yrotation Zrotation
									JOINT left_hand
									{
										OFFSET	-110.7	-3.89999	13.6
										CHANNELS 3  Xrotation Yrotation Zrotation
										JOINT left_ee
										{
											OFFSET	-80.8	-5.10001	12.1
											CHANNELS 3  Xrotation Yrotation Zrotation
											End Site
											{
												OFFSET	1	0	0
											}
										}
									}
								}
							}
						}
					}
					JOINT right_clavicle
					{
						OFFSET	43.2	22.4	-70.8
						CHANNELS 3  Xrotation Yrotation Zrotation
						JOINT right_shoulder
						{
							OFFSET	93.9	-5.79999	48.7
							CHANNELS 3  Xrotation Yrotation Zrotation
							JOINT right_elbow
							{
								OFFSET	291.4	-30.8	15.2
								CHANNELS 3  Xrotation Yrotation Zrotation
								JOINT right_lowarm_twist
								{
									OFFSET	110.7	-3.89999	13.6
									CHANNELS 3  Xrotation Yrotation Zrotation
									JOINT right_hand
									{
										OFFSET	110.7	-3.89999	13.6
										CHANNELS 3  Xrotation Yrotation Zrotation
										JOINT right_ee
										{
											OFFSET	80.8	-5.10001	12.1
											CHANNELS 3  Xrotation Yrotation Zrotation
											End Site
											{
												OFFSET	1	0	0
											}
										}
									}
								}
							}
						}
					}
				}
			}
		}
	}
	JOINT left_hip
	{
		OFFSET	-82.8	-127.5	0.300001
		CHANNELS 3  Xrotation Yrotation Zrotation
		JOINT left_knee
		{
			OFFSET	-28.2	-396.7	2.2
			CHANNELS 3  Xrotation Yrotation Zrotation
			JOINT left_ankle
			{
				OFFSET	-11.7	-411.3	35.4
				CHANNELS 3  Xrotation Yrotation Zrotation
				JOINT left_toes
				{
					OFFSET	0	-60	-88.6
					CHANNELS 3  Xrotation Yrotation Zrotation
					JOINT left_foot_ee
					{
						OFFSET	-22.5	-16.5	-42.2
						CHANNELS 3  Xrotation Yrotation Zrotation
						End Site
						{
							OFFSET	1	0	0
						}
					}
				}
			}
		}
	}
	JOINT right_hip
	{
		OFFSET	82.8	-127.5	0.300001
		CHANNELS 3  Xrotation Yrotation Zrotation
		JOINT right_knee
		{
			OFFSET	28.2	-396.7	2.2
			CHANNELS 3  Xrotation Yrotation Zrotation
			JOINT right_ankle
			{
				OFFSET	11.7	-411.3	35.4
				CHANNELS 3  Xrotation Yrotation Zrotation
				JOINT right_toes
				{
					OFFSET	0	-60	-88.6
					CHANNELS 3  Xrotation Yrotation Zrotation
					JOINT right_foot_ee
					{
						OFFSET	22.5	-16.5	-42.2
						CHANNELS 3  Xrotation Yrotation Zrotation
						End Site
						{
							OFFSET	1	0	0
						}
					}
				}
			}
		}
	}
}
MOTION
Frames: 7
Frame Time: 0.02
2800.94 716.97 -1473.77 16.6285511803 78.9999767987 -18.2531873526 0.218886 -0.390813 -0.941229 0.219318 -0.330131 -0.964187 0.2252 -0.124115 -1.01155 0.223883 -0.282305 -0.979257 -10.5665 10.8145 1.46148 -10.7106 19.4429 4.25181 -0.0 0.0 -0.0 5.27717 9.37173 10.3298 1.27312 -24.9053 56.2599 4.09918 -63.7627 2.55033 7.65107 0.206068 -0.95489 -3.01146 11.5078 -14.5316 -0.0 0.0 -0.0 4.98296 17.0781 -8.6462 -31.5226 18.1944 -63.342 0.505828 14.0673 -0.0624098 -8.73335 0.38829 -1.04574 1.95462 7.68867 -9.98192 0.0 0.0 0.0 -20.4445 -0.245348 9.55649 -4.07467 0.146189 0.608118 17.9039 23.2768 -2.56638 26.2905 -0.0 -0.0 -0.0 0.0 -0.0 28.6123 26.774 1.28772 -6.21519 -0.205548 -0.931236 -7.38014 -24.0709 -1.13701 -13.9774 0.0 0.0 0.0 0.0 0.0 
2664.33562968 724.989 -1517.30946869 59.7886176629 86.396819563 -63.6878716105 0.285487 -0.082087 -0.125354 0.285493 -0.073944 -0.130324 0.285668 -0.0456137 -0.142728 0.285646 -0.0675825 -0.133733 -1.95223 11.3916 0.879197 -1.74479 19.8968 2.39095 -0.0 0.0 -0.0 3.61073 13.102 7.51522 -9.1336 -22.7903 58.6505 2.86513 -54.822 1.48607 7.69149 0.206817 -0.96 -2.75451 11.7421 -12.7247 -0.0 0.0 -0.0 4.60193 15.5609 -7.9523 -24.9606 20.942 -67.5407 0.618041 17.0226 -0.0924922 -10.1421 0.465696 -1.20846 2.16708 6.50425 -11.95 0.0 0.0 0.0 -21.8458 0.201661 7.46705 -8.39266 0.253498 1.26192 3.19996 28.0651 -0.493637 25.9001 -0.0 -0.0 -0.0 0.0 -0.0 24.3209 27.7361 1.26288 -13.381 -0.315764 -2.02457 -19.1738 -18.1098 -2.92079 -12.8886 0.0 0.0 0.0 0.0 0.0 
2665.01624063 724.989 -1519.38985272 49.213865708 85.8866968846 -53.0893394589 0.285487 -0.082087 -0.125354 0.285493 -0.073944 -0.130324 0.285668 -0.0456137 -0.142728 0.285646 -0.0675825 -0.133733 -1.95223 11.3916 0.879197 -1.74479 19.8968 2.39095 -0.0 0.0 -0.0 3.61073 13.102 7.51522 -9.1336 -22.7903 58.6505 2.86513 -54.822 1.48607 7.69149 0.206817 -0.96 -2.75451 11.7421 -12.7247 -0.0 0.0 -0.0 4.60193 15.5609 -7.9523 -24.9606 20.942 -67.5407 0.618041 17.0226 -0.0924922 -10.1421 0.465696 -1.20846 2.16708 6.50425 -11.95 0.0 0.0 0.0 -21.8458 0.201661 7.46705 -8.39266 0.253498 1.26192 3.19996 28.0651 -0.493637 25.9001 -0.0 -0.0 -0.0 0.0 -0.0 24.3209 27.7361 1.26288 -13.381 -0.315764 -2.02457 -19.1738 -18.1098 -2.92079 -12.8886 0.0 0.0 0.0 0.0 0.0 
2665.82744507 724.989 -1521.73912367 40.2565361152 85.1789731138 -44.1049979763 0.285487 -0.082087 -0.125354 0.285493 -0.073944 -0.130324 0.285668 -0.0456137 -0.142728 0.285646 -0.0675825 -0.133733 -1.95223 11.3916 0.879197 -1.74479 19.8968 2.39095 -0.0 0.0 -0.0 3.61073 13.102 7.51522 -9.1336 -22.7903 58.6505 2.86513 -54.822 1.48607 7.69149 0.206817 -0.96 -2.75451 11.7421 -12.7247 -0.0 0.0 -0.0 4.60193 15.5609 -7.9523 -24.9606 20.942 -67.5407 0.618041 17.0226 -0.0924922 -10.1421 0.465696 -1.20846 2.16708 6.50425 -11.95 0.0 0.0 0.0 -21.8458 0.201661 7.46705 -8.39266 0.253498 1.26192 3.19996 28.0651 -0.493637 25.9001 -0.0 -0.0 -0.0 0.0 -0.0 24.3209 27.7361 1.26288 -13.381 -0.315764 -2.02457 -19.1738 -18.1098 -2.92079 -12.8886 0.0 0.0 0.0 0.0 0.0 
2666.85143124 724.989 -1524.53115693 32.6397640419 84.2208626584 -36.4558845112 0.285487 -0.082087 -0.125354 0.285493 -0.073944 -0.130324 0.285668 -0.0456137 -0.142728 0.285646 -0.0675825 -0.133733 -1.95223 11.3916 0.879197 -1.74479 19.8968 2.39095 -0.0 0.0 -0.0 3.61073 13.102 7.51522 -9.1336 -22.7903 58.6505 2.86513 -54.822 1.48607 7.69149 0.206817 -0.96 -2.75451 11.7421 -12.7247 -0.0 0.0 -0.0 4.60193 15.5609 -7.9523 -24.9606 20.942 -67.5407 0.618041 17.0226 -0.0924922 -10.1421 0.465696 -1.20846 2.16708 6.50425 -11.95 0.0 0.0 0.0 -21.8458 0.201661 7.46705 -8.39266 0.253498 1.26192 3.19996 28.0651 -0.493637 25.9001 -0.0 -0.0 -0.0 0.0 -0.0 24.3209 27.7361 1.26288 -13.381 -0.315764 -2.02457 -19.1738 -18.1098 -2.92079 -12.8886 0.0 0.0 0.0 0.0 0.0 
2667.94561327 724.989 -1527.33241616 27.2075344993 83.1780646835 -30.9909203584 0.285487 -0.082087 -0.125354 0.285493 -0.073944 -0.130324 0.285668 -0.0456137 -0.142728 0.285646 -0.0675825 -0.133733 -1.95223 11.3916 0.879197 -1.74479 19.8968 2.39095 -0.0 0.0 -0.0 3.61073 13.102 7.51522 -9.1336 -22.7903 58.6505 2.86513 -54.822 1.48607 7.69149 0.206817 -0.96 -2.75451 11.7421 -12.7247 -0.0 0.0 -0.0 4.60193 15.5609 -7.9523 -24.9606 20.942 -67.5407 0.618041 17.0226 -0.0924922 -10.1421 0.465696 -1.20846 2.16708 6.50425 -11.95 0.0 0.0 0.0 -21.8458 0.201661 7.46705 -8.39266 0.253498 1.26192 3.19996 28.0651 -0.493637 25.9001 -0.0 -0.0 -0.0 0.0 -0.0 24.3209 27.7361 1.26288 -13.381 -0.315764 -2.02457 -19.1738 -18.1098 -2.92079 -12.8886 0.0 0.0 0.0 0.0 0.0 
2646.54438234 732.208 -1535.15240573 28.9408241299 81.7634129628 -32.7448066265 0.0141531 0.18592 0.0522819 0.0141361 0.182217 0.0640066 0.014338 0.16472 0.100833 0.0143685 0.178577 0.0735531 -1.02148 11.9321 1.17343 -0.763321 20.5009 2.62822 -0.0 0.0 -0.0 3.17902 13.1917 6.80113 -11.2737 -22.3476 58.7249 2.49733 -51.042 1.19244 8.11476 0.214435 -1.01353 -2.62631 11.4812 -12.0265 -0.0 0.0 -0.0 4.62295 15.864 -7.97299 -23.407 22.8402 -68.6929 0.632308 17.3921 -0.0967127 -10.4655 0.484032 -1.24555 2.32584 6.35741 -13.1099 0.0 0.0 0.0 -21.2245 0.732027 7.16257 -10.1104 0.282435 1.52391 -1.3839 29.3592 0.217467 26.6385 -0.0 -0.0 -0.0 0.0 -0.0 23.1821 28.814 -1.52208 -12.6159 -0.310529 -1.90729 -17.3362 -11.4674 -2.60597 -14.2094 0.0 0.0 0.0 0.0 0.0 
